<?xml version="1.0" encoding="UTF-8" standalone="no"?>
<svg
   width="1366"
   zoomAndPan="magnify"
   viewBox="0 0 1024.5 576"
   height="768"
   preserveAspectRatio="xMidYMid meet"
   version="1.0"
   id="svg9"
   sodipodi:docname="SVVVL_Research_Wordmark.svg"
   inkscape:version="1.4.2 (f4327f4, 2025-05-13)"
   inkscape:export-filename="SVVVL_Research_Wordmark.pdf"
   inkscape:export-xdpi="96"
   inkscape:export-ydpi="96"
   xmlns:inkscape="http://www.inkscape.org/namespaces/inkscape"
   xmlns:sodipodi="http://sodipodi.sourceforge.net/DTD/sodipodi-0.dtd"
   xmlns="http://www.w3.org/2000/svg"
   xmlns:svg="http://www.w3.org/2000/svg">
  <sodipodi:namedview
     id="namedview9"
     pagecolor="#ffffff"
     bordercolor="#000000"
     borderopacity="0.25"
     inkscape:showpageshadow="2"
     inkscape:pageopacity="0.0"
     inkscape:pagecheckerboard="0"
     inkscape:deskcolor="#d1d1d1"
     inkscape:zoom="1"
     inkscape:cx="497.5"
     inkscape:cy="452.5"
     inkscape:window-width="1920"
     inkscape:window-height="974"
     inkscape:window-x="2293"
     inkscape:window-y="-11"
     inkscape:window-maximized="1"
     inkscape:current-layer="svg9" />
  <defs
     id="defs1">
    <g
       id="g1" />
    <clipPath
       id="01722ef9bb">
      <path
         d="M 0 0.140625 L 1024 0.140625 L 1024 575.859375 L 0 575.859375 Z M 0 0.140625 "
         clip-rule="nonzero"
         id="path1" />
    </clipPath>
  </defs>
  <g
     id="Research"
     transform="matrix(1.1944918,0,0,1.1944918,-145.86119,-80.90508)">
    <path
       d="M 8.40625,0 V -73.515625 H 21.109375 V -44.3125 c 0.488281,-1.125 1.1875,-2.28125 2.09375,-3.46875 0.914063,-1.1875 2.035156,-2.269531 3.359375,-3.25 1.332031,-0.976562 2.875,-1.765625 4.625,-2.359375 1.75,-0.601563 3.710938,-0.90625 5.890625,-0.90625 4.257813,0 7.828125,0.84375 10.703125,2.53125 2.875,1.679687 5.023438,4.09375 6.453125,7.25 1.4375,3.148437 2.15625,6.820313 2.15625,11.015625 V 0 H 43.6875 v -31.8125 c 0,-4.132812 -0.859375,-7.164062 -2.578125,-9.09375 -1.710937,-1.925781 -4.140625,-2.890625 -7.296875,-2.890625 -3.011719,0 -5.445312,0.703125 -7.296875,2.109375 -1.855469,1.398438 -3.21875,3.429688 -4.09375,6.09375 -0.875,2.65625 -1.3125,5.804688 -1.3125,9.4375 V 0 Z m 0,0"
       id="path25"
       transform="translate(580.98454,499.14063)" />
    <path
       d="m 53.453125,-40.015625 -10.8125,4.3125 C 41.867188,-37.734375 40.519531,-39.5 38.59375,-41 c -1.929688,-1.507812 -4.21875,-2.265625 -6.875,-2.265625 -4.34375,0 -7.6875,1.492187 -10.03125,4.46875 -2.34375,2.96875 -3.515625,7.011719 -3.515625,12.125 0,5.179687 1.171875,9.292969 3.515625,12.34375 2.34375,3.042969 5.6875,4.5625 10.03125,4.5625 2.65625,0 4.945312,-0.769531 6.875,-2.3125 1.925781,-1.539063 3.273438,-3.289063 4.046875,-5.25 l 10.8125,4.203125 c -1.960937,4.6875 -4.796875,8.261719 -8.515625,10.71875 -3.710938,2.4453125 -7.976562,3.671875 -12.796875,3.671875 -5.25,0 -9.929687,-1.085937 -14.03125,-3.25 -4.09375,-2.175781 -7.3125,-5.328125 -9.65625,-9.453125 -2.34375,-4.132812 -3.515625,-9.144531 -3.515625,-15.03125 0,-5.945312 1.171875,-10.984375 3.515625,-15.109375 2.34375,-4.132813 5.5625,-7.285156 9.65625,-9.453125 4.101563,-2.175781 8.78125,-3.265625 14.03125,-3.265625 4.613281,0 8.828125,1.210937 12.640625,3.625 3.820312,2.417969 6.710938,5.96875 8.671875,10.65625 z m 0,0"
       id="path22"
       transform="translate(523.75315,499.14063)" />
    <path
       d="M 8.828125,0 V -53.03125 H 21.53125 v 9.34375 c 0.5625,-1.394531 1.28125,-2.738281 2.15625,-4.03125 0.875,-1.300781 1.941406,-2.441406 3.203125,-3.421875 1.257813,-0.976563 2.726563,-1.75 4.40625,-2.3125 1.675781,-0.5625 3.566406,-0.84375 5.671875,-0.84375 0.5625,0 1.332031,0.03906 2.3125,0.109375 0.976562,0.07422 1.710938,0.179688 2.203125,0.3125 V -42 c -1.054687,-0.351562 -2.386719,-0.617188 -4,-0.796875 -1.605469,-0.175781 -3.074219,-0.125 -4.40625,0.15625 -2.804687,0.5625 -5.042969,1.601563 -6.71875,3.109375 -1.679687,1.5 -2.902344,3.480469 -3.671875,5.9375 -0.773438,2.449219 -1.15625,5.351562 -1.15625,8.703125 V 0 Z m 0,0"
       id="path19"
       transform="translate(482.48363,499.14063)" />
    <path
       d="m 27.296875,1.265625 c -4.761719,0 -8.839844,-1.121094 -12.234375,-3.359375 -3.398438,-2.238281 -6.007812,-5.425781 -7.828125,-9.5625 -1.8125,-4.132812 -2.71875,-9.070312 -2.71875,-14.8125 0,-5.875 0.960937,-10.875 2.890625,-15 1.925781,-4.132812 4.640625,-7.304688 8.140625,-9.515625 3.5,-2.207031 7.59375,-3.3125 12.28125,-3.3125 2.9375,0 5.507813,0.527344 7.71875,1.578125 2.207031,1.054688 4.046875,2.417969 5.515625,4.09375 1.46875,1.679688 2.625,3.5 3.46875,5.46875 v -9.875 H 57.234375 L 57.125,0 H 44.53125 v -9.140625 c -0.917969,2.03125 -2.164062,3.839844 -3.734375,5.421875 -1.574219,1.574219 -3.5,2.796875 -5.78125,3.671875 -2.273437,0.875 -4.84375,1.3125 -7.71875,1.3125 z m 3.890625,-10.1875 c 2.726562,-0.070313 5.070312,-0.84375 7.03125,-2.3125 1.96875,-1.46875 3.492188,-3.53125 4.578125,-6.1875 1.082031,-2.664063 1.625,-5.679687 1.625,-9.046875 0,-3.351562 -0.542969,-6.34375 -1.625,-8.96875 -1.085937,-2.625 -2.609375,-4.707031 -4.578125,-6.25 C 36.257812,-43.226562 33.878906,-44 31.078125,-44 c -2.792969,0 -5.1875,0.773438 -7.1875,2.3125 -2,1.542969 -3.527344,3.640625 -4.578125,6.296875 -1.042969,2.65625 -1.5625,5.601563 -1.5625,8.828125 0,3.5 0.519531,6.5625 1.5625,9.1875 1.050781,2.625 2.59375,4.695312 4.625,6.203125 2.03125,1.5 4.445312,2.25 7.25,2.25 z m 0,0"
       id="path16"
       transform="translate(418.42649,499.14063)" />
    <path
       d="m 31.40625,1.359375 c -4.761719,0 -9.171875,-1.085937 -13.234375,-3.25 -4.0625,-2.164063 -7.339844,-5.347656 -9.828125,-9.546875 -2.480469,-4.207031 -3.71875,-9.25 -3.71875,-15.125 0,-4.625 0.710938,-8.664062 2.140625,-12.125 1.4375,-3.46875 3.394531,-6.359375 5.875,-8.671875 2.488281,-2.3125 5.328125,-4.046875 8.515625,-5.203125 3.1875,-1.15625 6.53125,-1.734375 10.03125,-1.734375 4.96875,0 9.320312,1.070313 13.0625,3.203125 3.75,2.136719 6.691406,5.273438 8.828125,9.40625 2.132813,4.125 3.203125,9.199219 3.203125,15.21875 v 3.265625 H 14.8125 l -0.109375,-8.515625 h 28.5625 c 0,-0.976562 -0.246094,-2.113281 -0.734375,-3.40625 -0.492188,-1.300781 -1.246094,-2.5625 -2.265625,-3.78125 -1.011719,-1.226562 -2.273437,-2.257812 -3.78125,-3.09375 -1.5,-0.84375 -3.230469,-1.265625 -5.1875,-1.265625 -3.21875,0 -5.867187,0.703125 -7.9375,2.109375 -2.0625,1.398438 -3.605469,3.355469 -4.625,5.875 -1.011719,2.523438 -1.515625,5.460938 -1.515625,8.8125 0,3.21875 0.472656,6.109375 1.421875,8.671875 0.945313,2.554687 2.488281,4.546875 4.625,5.984375 2.132813,1.4375 4.953125,2.15625 8.453125,2.15625 1.394531,0 2.84375,-0.3125 4.34375,-0.9375 1.507812,-0.632812 2.894531,-1.53125 4.15625,-2.6875 1.257812,-1.15625 2.207031,-2.539062 2.84375,-4.15625 l 12.078125,3.265625 c -1.335937,3.5 -3.195313,6.40625 -5.578125,8.71875 -2.375,2.304687 -5.105469,4.015625 -8.1875,5.140625 -3.085938,1.113281 -6.40625,1.671875 -9.96875,1.671875 z m 0,0"
       id="path13"
       transform="translate(357.83475,499.14063)" />
    <path
       d="m 28.046875,1.265625 c -4.980469,0 -9.257813,-0.875 -12.828125,-2.625 -3.5625,-1.75 -6.328125,-4.0625 -8.296875,-6.9375 -1.960937,-2.875 -2.9375,-6.023437 -2.9375,-9.453125 h 12.71875 c 0,1.898438 0.519531,3.460938 1.5625,4.6875 1.050781,1.21875 2.488281,2.148438 4.3125,2.78125 1.820313,0.625 3.816406,0.9375 5.984375,0.9375 3.363281,0 5.988281,-0.488281 7.875,-1.46875 1.894531,-0.976562 2.84375,-2.585938 2.84375,-4.828125 0,-1.476563 -0.808594,-2.597656 -2.421875,-3.359375 -1.617187,-0.769531 -3.699219,-1.347656 -6.25,-1.734375 -2.554687,-0.382813 -5.25,-0.835937 -8.09375,-1.359375 -2.835937,-0.53125 -5.527344,-1.335938 -8.078125,-2.421875 -2.554688,-1.09375 -4.636719,-2.648437 -6.25,-4.671875 -1.605469,-2.03125 -2.40625,-4.796875 -2.40625,-8.296875 0,-3.007813 0.734375,-5.789063 2.203125,-8.34375 1.46875,-2.5625 3.8125,-4.613281 7.03125,-6.15625 3.21875,-1.539063 7.382813,-2.3125 12.5,-2.3125 4.40625,0 8.078125,0.527344 11.015625,1.578125 2.945312,1.054688 5.3125,2.4375 7.09375,4.15625 1.789062,1.710938 3.070312,3.546875 3.84375,5.515625 0.769531,1.960937 1.15625,3.84375 1.15625,5.65625 h -12.5 c 0,-1.601563 -0.929688,-3.050781 -2.78125,-4.34375 -1.855469,-1.300781 -4.5,-1.953125 -7.9375,-1.953125 -3.148438,0 -5.421875,0.511719 -6.828125,1.53125 -1.398437,1.011719 -2.09375,2.390625 -2.09375,4.140625 0,1.261719 0.609375,2.261719 1.828125,3 1.226562,0.730469 2.820312,1.324219 4.78125,1.78125 1.96875,0.449219 4.15625,0.886719 6.5625,1.3125 2.414062,0.417969 4.8125,0.960937 7.1875,1.625 2.382812,0.667969 4.554688,1.542969 6.515625,2.625 1.96875,1.085937 3.5625,2.539063 4.78125,4.359375 1.226563,1.824219 1.84375,4.167969 1.84375,7.03125 0,3.4375 -0.898437,6.484375 -2.6875,9.140625 -1.78125,2.65625 -4.445313,4.726563 -7.984375,6.203125 -3.53125,1.46875 -7.953125,2.203125 -13.265625,2.203125 z m 0,0"
       id="path10"
       transform="translate(302.49363,499.14063)" />
    <path
       d="m 31.40625,1.359375 c -4.761719,0 -9.171875,-1.085937 -13.234375,-3.25 -4.0625,-2.164063 -7.339844,-5.347656 -9.828125,-9.546875 -2.480469,-4.207031 -3.71875,-9.25 -3.71875,-15.125 0,-4.625 0.710938,-8.664062 2.140625,-12.125 1.4375,-3.46875 3.394531,-6.359375 5.875,-8.671875 2.488281,-2.3125 5.328125,-4.046875 8.515625,-5.203125 3.1875,-1.15625 6.53125,-1.734375 10.03125,-1.734375 4.96875,0 9.320312,1.070313 13.0625,3.203125 3.75,2.136719 6.691406,5.273438 8.828125,9.40625 2.132813,4.125 3.203125,9.199219 3.203125,15.21875 v 3.265625 H 14.8125 l -0.109375,-8.515625 h 28.5625 c 0,-0.976562 -0.246094,-2.113281 -0.734375,-3.40625 -0.492188,-1.300781 -1.246094,-2.5625 -2.265625,-3.78125 -1.011719,-1.226562 -2.273437,-2.257812 -3.78125,-3.09375 -1.5,-0.84375 -3.230469,-1.265625 -5.1875,-1.265625 -3.21875,0 -5.867187,0.703125 -7.9375,2.109375 -2.0625,1.398438 -3.605469,3.355469 -4.625,5.875 -1.011719,2.523438 -1.515625,5.460938 -1.515625,8.8125 0,3.21875 0.472656,6.109375 1.421875,8.671875 0.945313,2.554687 2.488281,4.546875 4.625,5.984375 2.132813,1.4375 4.953125,2.15625 8.453125,2.15625 1.394531,0 2.84375,-0.3125 4.34375,-0.9375 1.507812,-0.632812 2.894531,-1.53125 4.15625,-2.6875 1.257812,-1.15625 2.207031,-2.539062 2.84375,-4.15625 l 12.078125,3.265625 c -1.335937,3.5 -3.195313,6.40625 -5.578125,8.71875 -2.375,2.304687 -5.105469,4.015625 -8.1875,5.140625 -3.085938,1.113281 -6.40625,1.671875 -9.96875,1.671875 z m 0,0"
       id="path7"
       transform="translate(241.90189,499.14063)" />
    <path
       d="m 9.65625,0.109375 v -73.71875 h 29.9375 c 4.550781,0 8.578125,0.875 12.078125,2.625 3.5,1.75 6.265625,4.308594 8.296875,7.671875 2.03125,3.355469 3.046875,7.480469 3.046875,12.375 0,4.625 -0.984375,8.6875 -2.953125,12.1875 -1.960938,3.5 -4.777344,6.214844 -8.453125,8.140625 -3.667969,1.929687 -8.023437,2.890625 -13.0625,2.890625 h -15.4375 V 0.109375 Z M 52.09375,0 34.765625,-29.09375 48.828125,-30.984375 67.734375,0 Z M 22.890625,-39.375 h 14.8125 c 2.3125,0 4.304687,-0.4375 5.984375,-1.3125 1.675781,-0.875 2.988281,-2.1875 3.9375,-3.9375 0.945312,-1.75 1.421875,-3.882812 1.421875,-6.40625 0,-3.15625 -1.039063,-5.765625 -3.109375,-7.828125 -2.0625,-2.0625 -4.808594,-3.09375 -8.234375,-3.09375 h -14.8125 z m 0,0"
       id="path4-48"
       transform="translate(173.22432,499.14063)" />
    <path
       d="m 1.15625,16.90625 37.0625,-98.296875 H 51.25 L 14.078125,16.90625 Z m 0,0"
       id="path1-9"
       transform="translate(123.34376,499.14063)" />
  </g>
  <g
     id="SVVVL"
     transform="translate(-25.14837,-23.25)">
    <g
       fill="#000000"
       fill-opacity="1"
       id="L_Group"
       transform="translate(135.84429,-13.396625)">
      <path
         d="M -73.462056,16.781619 V -154.90613 h 26.24443 V -6.521631 h 79.96151 v 23.30325 z m 0,0"
         id="path9"
         style="stroke-width:1.03426"
         transform="translate(578.24435,370.45888)" />
    </g>
    <g
       id="V3_Group"
       transform="translate(-84.332415)">
      <path
         d="m 566.54029,202.15612 h 28.94323 l 57.38546,171.68776 h -26.24444 z m 121.41285,0 h 26.48684 l -59.84184,171.68776 h -24.28903 z m 0,0"
         id="path6-8"
         style="stroke-width:1.03426" />
    </g>
    <g
       id="V2_Group"
       transform="translate(-84.332415)">
      <path
         d="m 408.12163,202.15612 h 28.94322 l 57.38547,171.68776 h -26.24444 z m 121.41285,0 h 26.48684 l -59.84184,171.68776 h -24.28904 z m 0,0"
         id="path4-4"
         style="stroke-width:1.03426" />
    </g>
    <g
       fill="#000000"
       fill-opacity="1"
       id="V1_Group"
       transform="matrix(1.033777,0,0,1.033777,-98.27353,-4.1182835)">
      <path
         id="path6"
         d="m -258.03018,-170.18781 58.12501,166.0781174 h 30.60937 3.07764 l 0.007,-0.02197 h -3.07764 l -12.6416,-37.5966794 -0.0249,0.07471 -43.34033,-128.534178 z m 118.85889,0 -27.63281,83.017083 14.5957,42.868652 43.88086,-125.885735 z"
         transform="translate(506.42477,369.72254)" />
    </g>
    <g
       fill="#000000"
       fill-opacity="1"
       id="S_Group"
       transform="translate(-362.5824,-8.25)">
      <path
         d="m 74.21875,11.634868 c -10.585938,0 -19.671875,-1.542969 -27.265625,-4.6249992 -7.585937,-3.082031 -13.90625,-7.19140595 -18.96875,-12.3281247 -5.0625,-5.1328131 -8.980469,-10.9414061 -11.75,-17.4218751 -2.761719,-6.488281 -4.539063,-13.128906 -5.328125,-19.921875 h 27.75 c 1.101562,6.480469 3.195312,12.054687 6.28125,16.71875 3.082031,4.65625 7.113281,8.25 12.09375,10.78125 4.976562,2.53125 10.707031,3.796875 17.1875,3.796875 6.007812,0 11.503906,-0.945312 16.484375,-2.84375 4.976563,-1.894531 8.96875,-4.660156 11.968755,-8.296875 3.00781,-3.632813 4.51562,-7.90625 4.51562,-12.8125 0,-6.007813 -1.66406,-10.710937 -4.98437,-14.109375 -3.312505,-3.394531 -7.656255,-6.117188 -13.031255,-8.171875 -5.375,-2.0625 -11.308594,-3.84375 -17.796875,-5.34375 -6.480469,-1.5 -12.960938,-3.273437 -19.4375,-5.328125 -6.480469,-2.0625 -12.414062,-4.789062 -17.796875,-8.1875 -5.375,-3.394531 -9.726563,-7.976562 -13.046875,-13.75 -3.3125,-5.769525 -4.96875,-13.242189 -4.96875,-22.421879 0,-8.0625 2.09375,-15.72656 6.28125,-23 4.1875,-7.26953 10.550781,-13.15625 19.09375,-17.65625 8.539062,-4.50781 19.289062,-6.76562 32.25,-6.76562 9.644531,0 18.023438,1.46484 25.140625,4.39062 7.113285,2.92969 13.039065,6.76172 17.781255,11.5 4.73828,4.74219 8.375,9.91797 10.90625,15.53125 2.53124,5.61719 3.95312,11.10938 4.26562,16.48438 h -26.79687 c -0.78125,-4.58203 -2.48047,-8.73438 -5.093755,-12.45313 -2.605469,-3.71875 -6.164063,-6.72265 -10.671875,-9.01562 -4.5,-2.28907 -9.996094,-3.4375 -16.484375,-3.4375 -4.898437,0 -9.636719,0.83593 -14.21875,2.5 -4.585937,1.65625 -8.339844,4.22656 -11.265625,7.70312 -2.929688,3.48047 -4.390625,7.82422 -4.390625,13.03125 0,5.38672 1.617187,9.69922 4.859375,12.9375 3.238281,3.242194 7.585938,5.851564 13.046875,7.828134 5.457031,1.968744 11.425781,3.789056 17.90625,5.453119 6.476563,1.65625 12.914063,3.554687 19.3125,5.6875 6.406255,2.136719 12.335935,4.945313 17.796875,8.421875 5.45703,3.46875 9.80469,8.054688 13.04687,13.75 3.23829,5.6875 4.85938,12.960938 4.85938,21.8125 0,10.75 -2.57422,19.84375 -7.71875,27.28125 -5.13672,7.4296881 -12.17187,13.0000008 -21.10937,16.7187508 -8.929692,3.707031 -19.164068,5.5624992 -30.70313,5.5624992 z m 0,0"
         id="path4"
         transform="translate(376.82452,370.45888)" />
    </g>
  </g>
</svg>
